HIERARCHY
ROOT Hips
{
 OFFSET 0.000000 0.000000 0.000000
 CHANNELS 6 Xposition Yposition Zposition Yrotation Xrotation Zrotation
 JOINT Chest
 {
  OFFSET 0.000000 9.588913 -0.003946
  CHANNELS 3 Yrotation Xrotation Zrotation
  JOINT Chest2
  {
   OFFSET 0.000000 9.541882 0.008053
   CHANNELS 3 Yrotation Xrotation Zrotation
   JOINT Chest3
   {
    OFFSET 0.000000 9.501360 0.000000
    CHANNELS 3 Yrotation Xrotation Zrotation
    JOINT Chest4
    {
     OFFSET 0.000000 9.491660 0.000000
     CHANNELS 3 Yrotation Xrotation Zrotation
     JOINT Neck
     {
      OFFSET 0.000000 14.331917 0.000000
      CHANNELS 3 Yrotation Xrotation Zrotation
      JOINT Head
      {
       OFFSET 0.000000 8.884799 0.017034
       CHANNELS 3 Yrotation Xrotation Zrotation
       End Site
       {
        OFFSET 0.000000 16.896195 0.008993
       }
      }
     }
     JOINT RightCollar
     {
      OFFSET -2.923010 9.499495 0.000000
      CHANNELS 3 Yrotation Xrotation Zrotation
      JOINT RightShoulder
      {
       OFFSET -13.795216 0.000000 0.000000
       CHANNELS 3 Yrotation Xrotation Zrotation
       JOINT RightElbow
       {
        OFFSET -30.272209 0.000000 0.000000
        CHANNELS 3 Yrotation Xrotation Zrotation
        JOINT RightWrist
        {
         OFFSET -24.478199 0.000000 0.000000
         CHANNELS 3 Yrotation Xrotation Zrotation
         End Site
         {
          OFFSET -18.090752 0.000000 0.000000
         }
        }
       }
      }
     }
     JOINT LeftCollar
     {
      OFFSET 2.923010 9.499495 0.000000
      CHANNELS 3 Yrotation Xrotation Zrotation
      JOINT LeftShoulder
      {
       OFFSET 13.795216 0.000000 0.000000
       CHANNELS 3 Yrotation Xrotation Zrotation
       JOINT LeftElbow
       {
        OFFSET 30.272209 0.000000 0.000000
        CHANNELS 3 Yrotation Xrotation Zrotation
        JOINT LeftWrist
        {
         OFFSET 24.478199 0.000000 0.000000
         CHANNELS 3 Yrotation Xrotation Zrotation
         End Site
         {
          OFFSET 18.090752 0.000000 0.000000
         }
        }
       }
      }
     }
    }
   }
  }
 }
 JOINT RightHip
 {
  OFFSET -7.826875 0.019532 0.001973
  CHANNELS 3 Yrotation Xrotation Zrotation
  JOINT RightKnee
  {
   OFFSET 0.000000 -40.546152 -0.001885
   CHANNELS 3 Yrotation Xrotation Zrotation
   JOINT RightAnkle
   {
    OFFSET 0.000000 -39.417092 -0.003189
    CHANNELS 3 Yrotation Xrotation Zrotation
    JOINT RightToe
    {
     OFFSET 0.000000 -7.579396 17.243563
     CHANNELS 3 Yrotation Xrotation Zrotation
     End Site
     {
      OFFSET 0.000000 -1.500329 6.694466
     }
    }
   }
  }
 }
 JOINT LeftHip
 {
  OFFSET 7.826875 0.019532 0.001973
  CHANNELS 3 Yrotation Xrotation Zrotation
  JOINT LeftKnee
  {
   OFFSET 0.000000 -40.546152 -0.001885
   CHANNELS 3 Yrotation Xrotation Zrotation
   JOINT LeftAnkle
   {
    OFFSET 0.000000 -39.417092 -0.003189
    CHANNELS 3 Yrotation Xrotation Zrotation
    JOINT LeftToe
    {
     OFFSET 0.000000 -7.579396 17.243563
     CHANNELS 3 Yrotation Xrotation Zrotation
     End Site
     {
      OFFSET 0.000000 -1.500329 6.694466
     }
    }
   }
  }
 }
}
MOTION
Frames: 7
Frame Time: 0.008333
36.872109 11.428882 37.937016 49.668121 -69.066398 169.462459 3.114231 6.116768 -1.096216 1.575427 3.399862 -0.652013 1.964084 4.252513 -0.800712 1.575427 3.399862 -0.652013 -2.182263 5.764151 -0.303138 -2.373164 -19.718269 0.204006 -10.136237 -8.818275 -14.849728 64.712149 -36.270452 11.501386 40.413415 23.623056 2.330023 5.919716 -1.212775 -10.492542 1.540361 -1.862213 6.390259 -67.877508 -57.533896 -16.592662 -38.021112 9.833262 -7.716615 -28.738865 1.116015 21.479696 -10.569459 19.561543 -10.073981 0.745979 3.039022 -4.376824 -3.344398 4.518899 15.372647 0.030034 -0.038529 0.058499 13.724435 -39.077083 -14.486740 170.833956 43.122059 170.880872 4.188095 14.443960 0.101444 -0.117028 0.386954 -0.027301
36.862997 11.461722 37.943657 49.386466 -69.071385 169.739803 3.010641 6.134882 -1.116925 1.573867 3.402529 -0.654863 1.962104 4.255856 -0.804279 1.573867 3.402529 -0.654863 -2.175271 5.771479 -0.249507 -2.378438 -19.709883 0.262384 -10.061692 -8.878234 -14.886185 64.604113 -36.134201 11.618126 40.298820 23.651689 2.398627 6.072012 -1.227251 -10.610072 1.590897 -1.846293 6.389832 -68.030722 -57.536887 -16.529984 -38.019967 9.882670 -7.742804 -28.746647 1.126414 21.477686 -10.658445 19.549371 -10.079854 0.743618 3.039640 -4.375314 -3.325298 4.529191 15.376229 0.012426 -0.024424 0.045090 13.638090 -39.056284 -14.487358 170.817146 43.124111 170.855141 4.164591 14.488998 0.115406 -0.098132 0.336922 -0.020201
36.854422 11.495461 37.950750 49.222598 -69.062196 169.910486 2.952182 6.157710 -1.138259 1.573093 3.404340 -0.657081 1.961113 4.258127 -0.807053 1.573093 3.404340 -0.657081 -2.170452 5.779804 -0.198933 -2.385376 -19.700416 0.317858 -9.996792 -8.911296 -14.920088 64.480271 -36.020617 11.742033 40.221951 23.659801 2.455483 6.211206 -1.239908 -10.732542 1.625114 -1.833270 6.389460 -68.162810 -57.535693 -16.475826 -38.017114 9.930906 -7.768252 -28.755869 1.137648 21.473214 -10.709036 19.544161 -10.092730 0.740106 3.044151 -4.375036 -3.309149 4.530031 15.377967 -0.000715 -0.006404 0.035387 13.600254 -39.028661 -14.492252 170.803571 43.126543 170.835314 4.150710 14.520219 0.132673 -0.085920 0.300852 -0.016497
36.847003 11.525851 37.954988 49.023022 -69.088773 170.099018 2.878777 6.144865 -1.141937 1.573902 3.404957 -0.658627 1.962109 4.258906 -0.808976 1.573902 3.404957 -0.658627 -2.171152 5.790109 -0.154127 -2.397041 -19.688793 0.368216 -9.951224 -8.918719 -14.950515 64.347536 -35.943304 11.871393 40.180270 23.650042 2.510968 6.344379 -1.251425 -10.859766 1.641451 -1.825802 6.389504 -68.264856 -57.532452 -16.442375 -38.015350 9.977179 -7.796387 -28.763874 1.147053 21.466629 -10.775147 19.513631 -10.086294 0.736198 3.045999 -4.375623 -3.288530 4.534505 15.392628 -0.010357 0.006111 0.021275 13.538419 -39.035915 -14.487935 170.792137 43.130248 170.820149 4.129697 14.573423 0.141863 -0.065812 0.242766 -0.009100
36.840236 11.561780 37.960501 48.923810 -69.096608 170.197740 2.845104 6.142754 -1.146975 1.575495 3.404761 -0.658920 1.964099 4.258665 -0.809328 1.575495 3.404761 -0.658920 -2.176402 5.802070 -0.117869 -2.411653 -19.675371 0.410099 -9.929580 -8.905897 -14.976677 64.215379 -35.916614 12.010945 40.167861 23.625021 2.571479 6.475469 -1.266173 -10.994369 1.643014 -1.823665 6.391028 -68.332119 -57.529199 -16.433166 -38.018566 10.022855 -7.826510 -28.768559 1.150404 21.458811 -10.808699 19.499552 -10.090451 0.736226 3.044046 -4.374186 -3.278734 4.541771 15.410154 -0.008515 0.016781 0.009688 13.515547 -39.029454 -14.484799 170.787853 43.134414 170.812091 4.119876 14.606253 0.152795 -0.053694 0.203852 -0.004369
36.834261 11.600319 37.965733 48.839897 -69.112473 170.277081 2.814792 6.128002 -1.146856 1.576467 3.403884 -0.657710 1.965327 4.257566 -0.807810 1.576467 3.403884 -0.657710 -2.183563 5.817017 -0.092473 -2.425611 -19.658632 0.440240 -9.924823 -8.875030 -14.998004 64.084645 -35.945142 12.170784 40.181470 23.588302 2.638620 6.602676 -1.294301 -11.147066 1.637692 -1.821743 6.391431 -68.375621 -57.522401 -16.436534 -38.022506 10.066066 -7.855756 -28.771953 1.149333 21.451822 -10.838511 19.482501 -10.090702 0.739682 3.039885 -4.371159 -3.272524 4.549257 15.421036 -0.009177 0.022426 0.003458 13.492676 -39.032140 -14.478005 170.792329 43.138867 170.810226 4.115322 14.641463 0.162110 -0.043366 0.161549 -0.000121
36.829240 11.636362 37.968536 48.745340 -69.165654 170.350101 2.773628 6.073197 -1.130429 1.576088 3.401810 -0.655101 1.964880 4.254962 -0.804558 1.576088 3.401810 -0.655100 -2.191990 5.836925 -0.078610 -2.437956 -19.636356 0.457708 -9.927043 -8.825080 -15.017119 63.950663 -36.024484 12.355398 40.216604 23.540507 2.710509 6.723320 -1.345806 -11.324668 1.630515 -1.819327 6.387852 -68.403369 -57.507933 -16.447488 -38.019637 10.102737 -7.880861 -28.777113 1.148316 21.446960 -10.870554 19.437496 -10.066611 0.742380 3.034784 -4.370645 -3.266194 4.557514 15.426026 -0.014855 0.021101 0.000496 13.449911 -39.074462 -14.460998 170.800703 43.145274 170.809355 4.107248 14.699870 0.167906 -0.029667 0.098247 0.004897
